<svg width="223" height="60" viewBox="0 0 223 60" fill="none" xmlns="http://www.w3.org/2000/svg">
<path d="M60 33.1797C60 26.7045 64.743 22.044 71.2594 22.044C77.7758 22.044 82.5187 26.7045 82.5187 33.1797C82.5187 39.6548 77.7758 44.3153 71.2594 44.3153C64.7842 44.3153 60 39.6548 60 33.1797ZM77.817 33.1797C77.817 29.1378 75.2187 26.0859 71.2594 26.0859C67.3 26.0859 64.743 29.1378 64.743 33.1797C64.743 37.1803 67.3 40.2735 71.2594 40.2735C75.2187 40.2322 77.817 37.1803 77.817 33.1797Z" fill="white"/>
<path d="M84.2921 40.8893L86.7666 37.3837C88.2926 38.9509 90.6435 40.2707 93.613 40.2707C96.1288 40.2707 97.3661 39.1159 97.3661 37.8786C97.3661 34.0842 84.9519 36.6825 84.9519 28.5576C84.9519 24.9695 88.0452 22 93.1181 22C96.5412 22 99.387 23.0311 101.532 25.0107L98.9746 28.3514C97.2424 26.743 94.8915 26.0006 92.7056 26.0006C90.726 26.0006 89.6537 26.8667 89.6537 28.1452C89.6537 31.5684 102.027 29.2588 102.027 37.3012C102.027 41.2605 99.2221 44.23 93.4068 44.23C89.2825 44.3125 86.313 42.9102 84.2921 40.8893Z" fill="white"/>
<path d="M123.885 43.9406V28.8456L117.823 43.9406H115.802L109.739 28.8456V43.9406H105.161V22.3705H111.595L116.833 35.4033L122.071 22.3705H128.546V43.8993H123.885V43.9406Z" fill="white"/>
<path d="M131.722 33.1773C131.722 26.7022 136.465 22.0417 142.981 22.0417C149.498 22.0417 154.241 26.7022 154.241 33.1773C154.241 39.6525 149.498 44.313 142.981 44.313C136.465 44.313 131.722 39.6525 131.722 33.1773ZM149.539 33.1773C149.539 29.1355 146.94 26.0835 142.981 26.0835C139.022 26.0835 136.465 29.1355 136.465 33.1773C136.465 37.1779 139.022 40.2711 142.981 40.2711C146.94 40.2299 149.539 37.1779 149.539 33.1773Z" fill="white"/>
<path d="M156.014 40.8893L158.489 37.3837C160.014 38.9509 162.365 40.2707 165.335 40.2707C167.851 40.2707 169.088 39.1159 169.088 37.8786C169.088 34.0842 156.674 36.6825 156.674 28.5576C156.674 24.9695 159.767 22 164.84 22C168.263 22 171.109 23.0311 173.254 25.0107L170.696 28.3514C168.964 26.743 166.613 26.0006 164.428 26.0006C162.448 26.0006 161.376 26.8667 161.376 28.1452C161.376 31.5684 173.748 29.2588 173.748 37.3012C173.748 41.2605 170.944 44.23 165.129 44.23C161.004 44.3125 158.035 42.9102 156.014 40.8893Z" fill="white"/>
<path d="M176.842 43.9406V22.3705H181.461V43.8993H176.842V43.9406Z" fill="white"/>
<path d="M184.266 40.8893L186.74 37.3837C188.266 38.9509 190.617 40.2707 193.586 40.2707C196.102 40.2707 197.34 39.1159 197.34 37.8786C197.34 34.0842 184.925 36.6825 184.925 28.5576C184.925 24.9695 188.019 22 193.092 22C196.515 22 199.36 23.0311 201.505 25.0107L198.948 28.3514C197.216 26.743 194.865 26.0006 192.679 26.0006C190.699 26.0006 189.627 26.8667 189.627 28.1452C189.627 31.5684 202 29.2588 202 37.3012C202 41.2605 199.196 44.23 193.38 44.23C189.215 44.3125 186.245 42.9102 184.266 40.8893Z" fill="white"/>
<path d="M51.8718 14.4852C51.3832 12.6036 49.8126 10.7219 46.9856 8.62722C44.7169 6.95858 42.3087 6 40.3891 6C40.0052 6 39.6561 6.0355 39.3071 6.10651C38.4346 6.28402 37.6667 6.92308 37.1781 7.88166C36.5848 9.01775 36.4452 10.5444 36.8291 11.4675C36.9687 11.7515 37.1432 12.1065 37.3526 12.426C35.5028 13.5621 34.4557 13.8817 34.3161 13.9172C39.1326 15.5503 43.1463 18.9586 45.6593 23.3964L45.6942 22.9704C45.7989 21.7988 46.1479 20.4497 46.6365 19.0651C47.1252 19.2071 47.6138 19.2781 48.1024 19.2781C49.3938 19.2781 50.5107 18.7456 51.2087 17.787C51.9067 16.8284 52.186 15.5503 51.8718 14.4852Z" fill="#5E12A0"/>
<path d="M46.846 18.0355C50.0221 18.9231 51.3134 16.4379 50.8946 14.7693C50.4409 13.1006 48.975 11.3965 46.3923 9.47932C43.8095 7.56216 41.1919 6.7811 39.5166 7.13613C37.8413 7.49116 37.3526 10.0829 37.7715 11.077C37.946 11.4675 38.3299 12.0355 38.8534 12.6746C38.1903 13.1361 37.562 13.4912 37.0385 13.8107C40.2495 15.2663 43.0417 17.5385 45.1358 20.3787C45.3801 19.4201 45.7291 18.5681 46.0432 17.8225C46.2875 17.858 46.5668 17.929 46.846 18.0355Z" fill="url(#paint0_radial)"/>
<path d="M28.662 52.8284C39.4372 52.8284 48.1722 43.943 48.1722 32.9823C48.1722 22.0215 39.4372 13.1361 28.662 13.1361C17.8868 13.1361 9.15176 22.0215 9.15176 32.9823C9.15176 43.943 17.8868 52.8284 28.662 52.8284Z" fill="url(#paint1_radial)"/>
<path opacity="0.6" d="M49.2891 13.1361C46.6366 10.2959 44.4029 9.55031 41.7154 8.94676C39.6213 8.44972 40.1797 7.24262 42.7276 7.49114C41.506 7.06511 40.3542 6.9586 39.5166 7.13611C37.8413 7.49114 37.3526 10.0829 37.7715 11.0769C37.946 11.4675 38.3299 12.0355 38.8534 12.6746C37.9111 13.3136 37.1083 13.7752 36.4452 14.1302C36.7593 14.2722 37.1432 14.4497 37.597 14.6982C38.7836 15.3373 40.075 16.4024 40.075 16.4024C38.1205 14.6982 38.5393 13.9172 41.2268 12C42.0644 11.3965 43.6001 11.4675 45.0311 12.213C46.4621 12.9586 48.1374 14.8403 48.1374 14.8403L46.5319 17.9645C46.6366 18 46.7413 18.0355 46.846 18.071C47.8582 18.355 48.6609 18.284 49.2891 18.0355C50.0221 17.574 51.9417 16.0119 49.2891 13.1361Z" fill="#A98698"/>
<path d="M41.6805 10.6509C42.3786 10.9349 43.286 11.4319 44.4029 12.1775C45.7292 13.0651 46.8809 14.0591 47.6139 14.8402C46.3923 16.4733 45.5895 18.71 45.1009 20.2722C45.3452 20.6272 45.6244 20.9822 45.8688 21.3372C46.1131 20.4497 46.5319 19.1361 47.0903 17.8224C47.2299 17.858 47.4044 17.858 47.579 17.858C47.9978 17.858 48.4864 17.7869 48.8703 17.4674C49.1495 17.2544 49.4637 16.8639 49.4288 16.1538C49.4288 15.4793 48.9052 14.6272 47.8233 13.5976C47.0554 12.852 46.0084 12.0355 44.9613 11.2899C41.9597 9.26624 39.8656 8.69819 38.9233 9.65677C38.295 10.2958 38.3648 11.0769 38.5742 11.6449C37.4574 12.3905 36.515 12.923 35.8868 13.2781C36.3056 13.4201 36.6895 13.5976 37.1084 13.7751C38.2252 13.1716 39.8307 12.142 41.6805 10.6509ZM48.277 15.7278C48.3817 15.9053 48.4166 16.0828 48.4166 16.1893C48.4166 16.5088 48.3119 16.6154 48.2421 16.6864C48.1025 16.7929 47.8233 16.8639 47.579 16.8639C47.7884 16.4378 48.0327 16.0828 48.277 15.7278ZM39.6562 10.4378C39.7609 10.3313 40.0401 10.2603 40.4939 10.3313C40.1448 10.6154 39.7958 10.8639 39.4468 11.1124C39.4119 10.8639 39.4468 10.6154 39.6562 10.4378Z" fill="#5E12A0"/>
<path d="M28.662 11.9644C17.249 11.9644 8 21.3727 8 32.9822C8 44.5917 17.249 54 28.662 54C40.075 54 49.324 44.5917 49.324 32.9822C49.324 21.3727 40.0401 11.9644 28.662 11.9644ZM28.662 52.8284C17.8773 52.8284 9.15177 43.9526 9.15177 32.9822C9.15177 22.0118 17.8773 13.136 28.662 13.136C39.4467 13.136 48.1722 22.0118 48.1722 32.9822C48.1722 43.9526 39.4118 52.8284 28.662 52.8284Z" fill="#5E12A0"/>
<path opacity="0.6" d="M28.662 52.8284C39.4372 52.8284 48.1722 43.943 48.1722 32.9823C48.1722 22.0215 39.4372 13.1361 28.662 13.1361C17.8868 13.1361 9.15176 22.0215 9.15176 32.9823C9.15176 43.943 17.8868 52.8284 28.662 52.8284Z" fill="url(#paint2_linear)"/>
<path opacity="0.6" d="M28.5224 50.4142C17.8772 48.6745 10.6525 38.4852 12.3976 27.6568C13.1655 22.8639 15.5388 18.781 18.8894 15.8343C14.0031 18.71 10.3733 23.7159 9.39605 29.8225C7.68585 40.6509 14.9106 50.8402 25.5208 52.5798C31.4541 53.5739 37.1781 51.6923 41.4012 48C37.6667 50.2011 33.1294 51.1597 28.5224 50.4142Z" fill="#A98698"/>
<path opacity="0.6" d="M31.7683 13.4202C26.8471 12.6036 22.0655 13.7397 18.1565 16.2604C18.0867 16.3314 18.0169 16.4024 18.0169 16.4024C19.5177 15.4794 21.7165 14.6628 21.7165 14.6628C16.0624 18.0001 14.3173 21.7989 14.3173 21.7989C16.5161 17.4675 22.973 14.4143 28.0338 14.2012C33.0946 13.9882 36.4103 15.5149 40.4589 18.8166C44.5075 22.1539 46.9507 28.9705 46.7064 34.3669C46.4969 39.7634 43.7048 44.1302 43.7048 44.1302C45.6244 41.6095 46.7762 39.7634 47.5091 37.8817C47.6487 37.3137 47.7883 36.7456 47.8581 36.1421C49.6032 25.3492 42.4134 15.1598 31.7683 13.4202Z" fill="url(#paint3_linear)"/>
<path d="M47.195 32.8047C47.195 43.2071 38.8883 51.6568 28.662 51.6568C18.4357 51.6568 10.0941 43.2071 10.0941 32.8047H47.195Z" fill="url(#paint4_linear)"/>
<g opacity="0.6">
<path opacity="0.6" d="M45.7291 32.8047C45.7291 42.9585 37.8412 51.2662 27.929 51.6568C28.1734 51.6568 28.4177 51.6568 28.662 51.6568C38.8883 51.6568 47.195 43.2071 47.195 32.8047H45.7291Z" fill="url(#paint5_linear)"/>
</g>
<g opacity="0.7">
<path opacity="0.7" d="M12.7118 32.8047H10.0941C10.0941 43.2071 18.4008 51.6568 28.6271 51.6568C29.0808 51.6568 29.4996 51.6568 29.9185 51.6213C20.3204 50.9112 12.7118 42.7455 12.7118 32.8047Z" fill="url(#paint6_linear)"/>
</g>
<path d="M47.1601 32.9822C47.1601 30.8166 43.4604 29.574 38.5393 29.1479C34.9793 28.8639 31.3843 29.2189 27.2659 30.497C23.7059 31.5621 20.4949 31.3846 18.1565 31.1006C12.9561 30.497 10.0941 30.426 10.0941 32.9822C10.0941 36.6745 17.4933 41.2899 28.5922 39.6923C34.2114 38.8757 37.1083 37.2071 40.424 36.071C44.0189 34.8639 47.1601 34.8994 47.1601 32.9822Z" fill="url(#paint7_linear)"/>
<path d="M34.735 24.0355C36.4698 24.0355 37.8762 22.6049 37.8762 20.8402C37.8762 19.0755 36.4698 17.645 34.735 17.645C33.0002 17.645 31.5938 19.0755 31.5938 20.8402C31.5938 22.6049 33.0002 24.0355 34.735 24.0355Z" fill="white"/>
<path d="M39.8656 26.4142C40.5981 26.4142 41.1919 25.8101 41.1919 25.0651C41.1919 24.32 40.5981 23.7159 39.8656 23.7159C39.1331 23.7159 38.5393 24.32 38.5393 25.0651C38.5393 25.8101 39.1331 26.4142 39.8656 26.4142Z" fill="white"/>
<g opacity="0.6">
<path opacity="0.6" d="M44.6122 18.284C44.5773 18.284 44.5424 18.284 44.5424 18.284C44.333 18.2485 44.1934 18.0355 44.2283 17.787C44.5424 16.1538 45.8687 14.5917 45.9385 14.5207C46.0781 14.3432 46.3573 14.3432 46.4969 14.4852C46.6714 14.6272 46.6714 14.9112 46.5318 15.0532C46.4969 15.0887 45.2753 16.5444 44.9961 17.9645C44.9612 18.1775 44.7867 18.284 44.6122 18.284Z" fill="url(#paint8_linear)"/>
</g>
<path opacity="0.2" d="M27.3729 47.787C27.9126 47.787 28.3502 47.3419 28.3502 46.7929C28.3502 46.2439 27.9126 45.7988 27.3729 45.7988C26.8332 45.7988 26.3956 46.2439 26.3956 46.7929C26.3956 47.3419 26.8332 47.787 27.3729 47.787Z" fill="white"/>
<g opacity="0.4">
<path opacity="0.6" d="M26.8122 47.4329C26.4283 47.0424 26.4283 46.4033 26.8122 46.0128C26.882 45.9418 26.9518 45.9063 27.0216 45.8353C26.882 45.8708 26.7773 45.9418 26.6726 46.0483C26.2887 46.4388 26.2887 47.0779 26.6726 47.4684C26.9867 47.788 27.4753 47.859 27.8593 47.6459C27.5102 47.788 27.0914 47.717 26.8122 47.4329Z" fill="url(#paint9_linear)"/>
</g>
<path opacity="0.3" d="M27.7196 46.5088C27.8353 46.5088 27.9291 46.4134 27.9291 46.2958C27.9291 46.1781 27.8353 46.0828 27.7196 46.0828C27.604 46.0828 27.5102 46.1781 27.5102 46.2958C27.5102 46.4134 27.604 46.5088 27.7196 46.5088Z" fill="white"/>
<path opacity="0.2" d="M32.4686 47.29C33.0083 47.29 33.4458 46.8449 33.4458 46.2959C33.4458 45.7469 33.0083 45.3018 32.4686 45.3018C31.9289 45.3018 31.4913 45.7469 31.4913 46.2959C31.4913 46.8449 31.9289 47.29 32.4686 47.29Z" fill="white"/>
<g opacity="0.4">
<path opacity="0.6" d="M31.9079 46.9358C31.524 46.5453 31.524 45.9062 31.9079 45.5157C31.9777 45.4447 32.0475 45.4092 32.1173 45.3382C31.9777 45.3737 31.873 45.4447 31.7683 45.5512C31.3844 45.9417 31.3844 46.5808 31.7683 46.9713C32.0824 47.2909 32.571 47.3619 32.955 47.1488C32.6059 47.2909 32.1871 47.2199 31.9079 46.9358Z" fill="url(#paint10_linear)"/>
</g>
<path opacity="0.3" d="M32.8153 46.0118C32.931 46.0118 33.0247 45.9164 33.0247 45.7988C33.0247 45.6811 32.931 45.5858 32.8153 45.5858C32.6997 45.5858 32.6059 45.6811 32.6059 45.7988C32.6059 45.9164 32.6997 46.0118 32.8153 46.0118Z" fill="white"/>
<path opacity="0.2" d="M29.9534 49.5976C30.3582 49.5976 30.6864 49.2638 30.6864 48.8521C30.6864 48.4403 30.3582 48.1065 29.9534 48.1065C29.5486 48.1065 29.2205 48.4403 29.2205 48.8521C29.2205 49.2638 29.5486 49.5976 29.9534 49.5976Z" fill="white"/>
<g opacity="0.4">
<path opacity="0.6" d="M29.5346 49.3145C29.2554 49.0305 29.2554 48.5335 29.5346 48.2494C29.5695 48.2139 29.6393 48.1784 29.6742 48.1429C29.5695 48.1784 29.4997 48.2495 29.4299 48.3205C29.1507 48.6045 29.1507 49.1015 29.4299 49.3855C29.6742 49.6341 30.0232 49.6696 30.3373 49.4921C30.0581 49.5986 29.744 49.5276 29.5346 49.3145Z" fill="url(#paint11_linear)"/>
</g>
<path opacity="0.3" d="M30.1977 48.6035C30.2748 48.6035 30.3373 48.54 30.3373 48.4615C30.3373 48.3831 30.2748 48.3195 30.1977 48.3195C30.1206 48.3195 30.0581 48.3831 30.0581 48.4615C30.0581 48.54 30.1206 48.6035 30.1977 48.6035Z" fill="white"/>
<path opacity="0.2" d="M34.4557 49.065C34.8605 49.065 35.1887 48.7312 35.1887 48.3195C35.1887 47.9077 34.8605 47.5739 34.4557 47.5739C34.0509 47.5739 33.7228 47.9077 33.7228 48.3195C33.7228 48.7312 34.0509 49.065 34.4557 49.065Z" fill="white"/>
<g opacity="0.4">
<path opacity="0.6" d="M34.0369 48.782C33.7577 48.498 33.7577 48.0009 34.0369 47.7169C34.0718 47.6814 34.1416 47.6459 34.1765 47.6104C34.0718 47.6459 34.002 47.7169 33.9322 47.7879C33.653 48.072 33.653 48.569 33.9322 48.853C34.1765 49.1015 34.5255 49.137 34.8396 48.9595C34.5604 49.066 34.2463 48.995 34.0369 48.782Z" fill="url(#paint12_linear)"/>
</g>
<path opacity="0.3" d="M34.7001 48.071C34.7772 48.071 34.8397 48.0074 34.8397 47.929C34.8397 47.8506 34.7772 47.787 34.7001 47.787C34.623 47.787 34.5605 47.8506 34.5605 47.929C34.5605 48.0074 34.623 48.071 34.7001 48.071Z" fill="white"/>
<path opacity="0.2" d="M23.2173 47.432C24.1039 47.432 24.8227 46.7008 24.8227 45.7988C24.8227 44.8969 24.1039 44.1657 23.2173 44.1657C22.3306 44.1657 21.6118 44.8969 21.6118 45.7988C21.6118 46.7008 22.3306 47.432 23.2173 47.432Z" fill="white"/>
<g opacity="0.4">
<path opacity="0.6" d="M22.3107 46.8284C21.6825 46.1893 21.6825 45.1597 22.3107 44.5207C22.4155 44.4142 22.5202 44.3432 22.6598 44.2722C22.4504 44.3432 22.2758 44.4852 22.1013 44.6272C21.4731 45.2662 21.4731 46.2958 22.1013 46.9349C22.6249 47.4674 23.4276 47.5739 24.0558 47.1834C23.4625 47.4319 22.7645 47.3254 22.3107 46.8284Z" fill="url(#paint13_linear)"/>
</g>
<path opacity="0.3" d="M23.7757 45.3018C23.9685 45.3018 24.1248 45.1428 24.1248 44.9468C24.1248 44.7507 23.9685 44.5917 23.7757 44.5917C23.583 44.5917 23.4267 44.7507 23.4267 44.9468C23.4267 45.1428 23.583 45.3018 23.7757 45.3018Z" fill="white"/>
<path opacity="0.2" d="M37.5629 43.4201C38.4496 43.4201 39.1684 42.689 39.1684 41.787C39.1684 40.885 38.4496 40.1539 37.5629 40.1539C36.6762 40.1539 35.9574 40.885 35.9574 41.787C35.9574 42.689 36.6762 43.4201 37.5629 43.4201Z" fill="white"/>
<g opacity="0.4">
<path opacity="0.6" d="M36.6197 42.8165C35.9914 42.1775 35.9914 41.1479 36.6197 40.5088C36.7244 40.4023 36.8291 40.3313 36.9687 40.2603C36.7593 40.3313 36.5848 40.4733 36.4103 40.6153C35.782 41.2544 35.782 42.284 36.4103 42.923C36.9338 43.4556 37.7365 43.5621 38.3648 43.1716C37.7714 43.4201 37.1083 43.3136 36.6197 42.8165Z" fill="url(#paint14_linear)"/>
</g>
<path opacity="0.3" d="M38.1204 41.29C38.3132 41.29 38.4695 41.131 38.4695 40.9349C38.4695 40.7388 38.3132 40.5799 38.1204 40.5799C37.9277 40.5799 37.7714 40.7388 37.7714 40.9349C37.7714 41.131 37.9277 41.29 38.1204 41.29Z" fill="white"/>
<defs>
<radialGradient id="paint0_radial" cx="0" cy="0" r="1" gradientUnits="userSpaceOnUse" gradientTransform="translate(50.258 12.5325) scale(15.5992 15.8678)">
<stop stop-color="#FFEAFF" stop-opacity="0.6"/>
<stop offset="0.6807" stop-color="#A087C9"/>
<stop offset="1" stop-color="#10002F"/>
</radialGradient>
<radialGradient id="paint1_radial" cx="0" cy="0" r="1" gradientUnits="userSpaceOnUse" gradientTransform="translate(41.5794 19.2999) scale(38.1657 38.8229)">
<stop stop-color="#FFEAFF" stop-opacity="0.6"/>
<stop offset="0.6807" stop-color="#A087C9"/>
<stop offset="1" stop-color="#10002F"/>
</radialGradient>
<linearGradient id="paint2_linear" x1="25.5324" y1="52.5469" x2="31.9838" y2="13.4195" gradientUnits="userSpaceOnUse">
<stop stop-color="#81FFFF"/>
<stop offset="0.6202" stop-color="white" stop-opacity="0"/>
</linearGradient>
<linearGradient id="paint3_linear" x1="42.4117" y1="19.5042" x2="26.0272" y2="34.283" gradientUnits="userSpaceOnUse">
<stop offset="0.2888" stop-color="white"/>
<stop offset="0.7796" stop-color="white" stop-opacity="0"/>
</linearGradient>
<linearGradient id="paint4_linear" x1="10.1098" y1="42.2197" x2="47.186" y2="42.2197" gradientUnits="userSpaceOnUse">
<stop stop-color="#0002E9"/>
<stop offset="0.9952" stop-color="#FF00C7"/>
</linearGradient>
<linearGradient id="paint5_linear" x1="48.941" y1="34.4589" x2="28.4359" y2="53.5094" gradientUnits="userSpaceOnUse">
<stop offset="0.2888" stop-color="white"/>
<stop offset="0.7796" stop-color="white" stop-opacity="0"/>
</linearGradient>
<linearGradient id="paint6_linear" x1="10.1098" y1="42.2197" x2="29.9454" y2="42.2197" gradientUnits="userSpaceOnUse">
<stop stop-color="#000292"/>
<stop offset="0.9952" stop-color="#7D00C7"/>
</linearGradient>
<linearGradient id="paint7_linear" x1="10.1347" y1="34.5484" x2="47.1611" y2="34.5484" gradientUnits="userSpaceOnUse">
<stop stop-color="#000292"/>
<stop offset="0.9952" stop-color="#BE00C7"/>
</linearGradient>
<linearGradient id="paint8_linear" x1="46.5536" y1="14.3478" x2="43.826" y2="18.705" gradientUnits="userSpaceOnUse">
<stop offset="0.2888" stop-color="white"/>
<stop offset="0.7796" stop-color="white" stop-opacity="0"/>
</linearGradient>
<linearGradient id="paint9_linear" x1="26.3837" y1="46.8243" x2="27.8603" y2="46.8243" gradientUnits="userSpaceOnUse">
<stop offset="0.2888" stop-color="white"/>
<stop offset="0.7796" stop-color="white" stop-opacity="0"/>
</linearGradient>
<linearGradient id="paint10_linear" x1="31.4758" y1="46.3205" x2="32.9525" y2="46.3205" gradientUnits="userSpaceOnUse">
<stop offset="0.2888" stop-color="white"/>
<stop offset="0.7796" stop-color="white" stop-opacity="0"/>
</linearGradient>
<linearGradient id="paint11_linear" x1="29.2159" y1="48.8615" x2="30.3245" y2="48.8615" gradientUnits="userSpaceOnUse">
<stop offset="0.2888" stop-color="white"/>
<stop offset="0.7796" stop-color="white" stop-opacity="0"/>
</linearGradient>
<linearGradient id="paint12_linear" x1="33.7031" y1="48.3276" x2="34.8117" y2="48.3276" gradientUnits="userSpaceOnUse">
<stop offset="0.2888" stop-color="white"/>
<stop offset="0.7796" stop-color="white" stop-opacity="0"/>
</linearGradient>
<linearGradient id="paint13_linear" x1="21.6141" y1="45.8404" x2="24.0257" y2="45.8404" gradientUnits="userSpaceOnUse">
<stop offset="0.2888" stop-color="white"/>
<stop offset="0.7796" stop-color="white" stop-opacity="0"/>
</linearGradient>
<linearGradient id="paint14_linear" x1="35.9364" y1="41.8273" x2="38.348" y2="41.8273" gradientUnits="userSpaceOnUse">
<stop offset="0.2888" stop-color="white"/>
<stop offset="0.7796" stop-color="white" stop-opacity="0"/>
</linearGradient>
</defs>
</svg>
